<?xml version="1.0" encoding="utf-8"?>
<!-- Generator: Adobe Illustrator 26.0.1, SVG Export Plug-In . SVG Version: 6.00 Build 0)  -->
<svg version="1.1" id="Layer_1" xmlns="http://www.w3.org/2000/svg" xmlns:xlink="http://www.w3.org/1999/xlink" x="0px" y="0px"
	 viewBox="0 0 970.1 1616.43" style="enable-background:new 0 0 970.1 1616.43;" xml:space="preserve">
<style type="text/css">
	.st0{fill:#E5DDBF;stroke:#916F5D;stroke-width:7.6777;stroke-linecap:round;stroke-linejoin:round;stroke-miterlimit:10;}
	.st1{fill:#FFFFFF;}
	.st2{fill:#E5DDBF;stroke:#916F5D;stroke-width:7.0491;stroke-linecap:round;stroke-linejoin:round;stroke-miterlimit:10;}
</style>
<g>
	<polygon class="st0" points="85.51,634.09 404.11,27.32 502.8,76.72 539.37,3.84 966.26,212.87 623.4,893.25 	"/>
	<polygon class="st0" points="966.26,370.12 966.26,212.87 716.99,700.12 716.99,857.36 	"/>
	<g>
		<polygon class="st0" points="337.69,417.45 142.6,780.07 419.67,918.33 473.96,809.15 584.44,864.52 716.99,600.12 		"/>
		<polygon class="st0" points="142.6,905.05 142.6,780.07 419.67,918.33 419.67,1036.92 		"/>
		<polygon class="st0" points="419.67,1036.92 419.67,918.33 473.96,809.15 473.96,1061.8 		"/>
		<polygon class="st0" points="584.44,864.52 584.44,1338.38 473.96,1284.73 473.96,809.15 		"/>
		<polygon class="st0" points="716.99,600.12 716.99,1073.97 584.44,1338.38 584.44,864.52 		"/>
	</g>
	<g>
		<polygon class="st0" points="81.58,1448.94 71.24,1217.77 423.28,1389.57 423.28,1612.39 		"/>
		<polygon class="st0" points="584.44,1337.67 584.44,1114.65 423.28,1389.57 423.28,1612.6 		"/>
		<polygon class="st0" points="71.24,1217.77 423.28,1389.57 584.44,1114.65 242.1,952.43 		"/>
	</g>
	<polygon class="st0" points="3.84,811.99 85.51,657.14 85.51,797.71 	"/>
	<polygon class="st0" points="85.51,634.09 85.51,797.71 142.6,826.68 142.6,780.07 193.27,685.88 	"/>
</g>
</svg>
