<?xml version="1.0" encoding="utf-8"?>
<!-- Generator: Adobe Illustrator 26.0.1, SVG Export Plug-In . SVG Version: 6.00 Build 0)  -->
<svg version="1.1" id="Layer_1" xmlns="http://www.w3.org/2000/svg" xmlns:xlink="http://www.w3.org/1999/xlink" x="0px" y="0px"
	 viewBox="0 0 744.65 585.8" style="enable-background:new 0 0 744.65 585.8;" xml:space="preserve">
<style type="text/css">
	.st0{fill:#E5DDBF;stroke:#916F5D;stroke-width:7.6777;stroke-linecap:round;stroke-linejoin:round;stroke-miterlimit:10;}
	.st1{fill:#FFFFFF;}
	.st2{fill:#E5DDBF;stroke:#916F5D;stroke-width:7.0491;stroke-linecap:round;stroke-linejoin:round;stroke-miterlimit:10;}
</style>
<g>
	<polygon class="st0" points="566.29,536.96 499.11,496.66 671.09,165.93 740.81,204.56 	"/>
	<g>
		<polygon class="st0" points="69.72,3.84 640.16,285.39 565.31,432.89 519.99,407.39 497,453.19 33.55,217.12 61.57,170.18 
			3.84,142.31 		"/>
		<polygon class="st0" points="519.99,456.49 519.99,407.39 497,453.19 499.11,496.66 		"/>
		<polygon class="st0" points="519.99,456.49 565.31,481.98 565.31,432.89 519.99,407.39 		"/>
		<polygon class="st0" points="640.16,334.49 640.16,285.39 565.31,432.89 565.31,481.98 		"/>
		<polygon class="st0" points="566.29,536.96 542.65,581.96 84.74,340.64 33.55,217.12 497,453.19 499.11,496.66 		"/>
		<polygon class="st0" points="61.57,170.18 3.84,142.31 42.58,255.71 53.1,263.17 33.55,217.12 		"/>
	</g>
</g>
</svg>
