<?xml version="1.0" encoding="utf-8"?>
<!-- Generator: Adobe Illustrator 26.0.1, SVG Export Plug-In . SVG Version: 6.00 Build 0)  -->
<svg version="1.1" id="Layer_1" xmlns="http://www.w3.org/2000/svg" xmlns:xlink="http://www.w3.org/1999/xlink" x="0px" y="0px"
	 viewBox="0 0 867.89 1293.15" style="enable-background:new 0 0 867.89 1293.15;" xml:space="preserve">
<style type="text/css">
	.st0{fill:#E5DDBF;stroke:#916F5D;stroke-width:7.6777;stroke-linecap:round;stroke-linejoin:round;stroke-miterlimit:10;}
	.st1{fill:#FFFFFF;}
	.st2{fill:#E5DDBF;stroke:#916F5D;stroke-width:7.0491;stroke-linecap:round;stroke-linejoin:round;stroke-miterlimit:10;}
</style>
<g>
	<polygon class="st0" points="864.05,347.27 798.84,313.47 766.13,236.1 593.35,146.54 566.62,198.11 522.61,175.3 43.54,1099.57 
		87.55,1122.38 120.27,1199.75 293.04,1289.31 319.77,1237.74 384.98,1271.54 	"/>
	<polygon class="st0" points="764.91,178.76 699.7,144.96 726.43,93.39 553.65,3.84 526.92,55.41 482.91,32.6 3.84,956.86 
		47.85,979.68 21.12,1031.25 193.9,1120.8 220.63,1069.23 285.84,1103.03 	"/>
	<polygon class="st0" points="764.91,178.76 864.05,347.27 384.98,1271.54 285.84,1103.03 	"/>
	<polygon class="st0" points="726.43,93.39 739.01,165.34 699.7,144.96 	"/>
	<polygon class="st0" points="220.63,1069.23 319.77,1237.74 384.98,1271.54 285.84,1103.03 	"/>
	<polygon class="st0" points="193.9,1120.8 220.63,1069.23 319.77,1237.74 293.04,1289.31 	"/>
	<polygon class="st0" points="21.12,1031.25 120.27,1199.75 293.04,1289.31 193.9,1120.8 	"/>
	<polygon class="st0" points="3.84,956.86 24.4,1024.93 47.85,979.68 	"/>
</g>
</svg>
