<?xml version="1.0" encoding="utf-8"?>
<!-- Generator: Adobe Illustrator 26.0.1, SVG Export Plug-In . SVG Version: 6.00 Build 0)  -->
<svg version="1.1" id="Layer_1" xmlns="http://www.w3.org/2000/svg" xmlns:xlink="http://www.w3.org/1999/xlink" x="0px" y="0px"
	 viewBox="0 0 1529.43 1691.99" style="enable-background:new 0 0 1529.43 1691.99;" xml:space="preserve">
<style type="text/css">
	.st0{fill:#E5DDBF;stroke:#916F5D;stroke-width:7.6777;stroke-linecap:round;stroke-linejoin:round;stroke-miterlimit:10;}
	.st1{fill:#FFFFFF;}
	.st2{fill:#E5DDBF;stroke:#916F5D;stroke-width:7.0491;stroke-linecap:round;stroke-linejoin:round;stroke-miterlimit:10;}
</style>
<g>
	<polygon class="st2" points="532.66,1401.61 482.33,1170.23 1022.49,1457.99 1063.93,1688.47 	"/>
	<polygon class="st2" points="629.9,956.25 482.33,1170.23 516.82,1120.21 396.85,1048.76 348.05,676.28 1143.76,1061.84 
		1166.32,1214.46 	"/>
	<polygon class="st2" points="43.78,734.56 3.52,545.74 352.09,710.37 377.25,899.17 	"/>
	<polygon class="st2" points="629.9,956.25 482.33,1170.23 1022.49,1457.99 1166.32,1214.46 	"/>
	<polygon class="st2" points="1525.91,814.97 1476.14,423.6 1143.76,1061.84 1166.32,1214.46 1022.49,1457.99 1063.93,1688.47 	"/>
	<polygon class="st2" points="348.05,676.28 1143.76,1061.84 1476.14,423.6 744.37,3.52 	"/>
	<polygon class="st2" points="173.01,241.26 3.52,545.74 352.09,710.37 348.05,676.28 511.96,401.91 	"/>
</g>
</svg>
