<svg width="97" height="96" xmlns="http://www.w3.org/2000/svg" xmlns:xlink="http://www.w3.org/1999/xlink" overflow="hidden"><defs><clipPath id="clip0"><rect x="597" y="196" width="97" height="96"/></clipPath><clipPath id="clip1"><rect x="598" y="196" width="96" height="96"/></clipPath><clipPath id="clip2"><rect x="598" y="196" width="96" height="96"/></clipPath><clipPath id="clip3"><rect x="598" y="196" width="96" height="96"/></clipPath></defs><g clip-path="url(#clip0)" transform="translate(-597 -196)"><g clip-path="url(#clip1)"><g clip-path="url(#clip2)"><g clip-path="url(#clip3)"><path d="M610 276.122 636.316 287.022 636.316 200.1 610 211ZM612 212.339 634.316 203.094 634.316 284.032 612 274.786Z" fill="#000000" fill-rule="nonzero" fill-opacity="1"/><path d="M653.062 227.453 655.062 225.453 655.062 212 640.062 212 640.062 214 653.062 214 653.062 227.453Z" fill="#000000" fill-rule="nonzero" fill-opacity="1"/><path d="M653.062 272 640.062 272 640.062 274 655.062 274 655.062 260.547 653.062 258.547 653.062 272Z" fill="#000000" fill-rule="nonzero" fill-opacity="1"/><path d="M661.707 228.707 660.293 227.293 644.586 243 660.293 258.707 661.707 257.293 648.431 244.017C648.427 244.013 648.427 244.007 648.431 244.003 648.433 244.001 648.435 244 648.438 244L682 244 682 242 648.438 242C648.432 242 648.428 241.995 648.428 241.99 648.428 241.987 648.429 241.985 648.431 241.983Z" fill="#000000" fill-rule="nonzero" fill-opacity="1"/></g></g></g></g></svg>