<svg width="97" height="96" xmlns="http://www.w3.org/2000/svg" xmlns:xlink="http://www.w3.org/1999/xlink" overflow="hidden"><defs><clipPath id="clip0"><rect x="501" y="196" width="97" height="96"/></clipPath><clipPath id="clip1"><rect x="502" y="196" width="96" height="96"/></clipPath><clipPath id="clip2"><rect x="502" y="196" width="96" height="96"/></clipPath><clipPath id="clip3"><rect x="502" y="196" width="96" height="96"/></clipPath></defs><g clip-path="url(#clip0)" transform="translate(-501 -196)"><g clip-path="url(#clip1)"><g clip-path="url(#clip2)"><g clip-path="url(#clip3)"><path d="M538.253 287 511.938 276.1 511.938 210.999 538.253 200.099 538.253 287Z" fill="#000000" fill-rule="nonzero" fill-opacity="1"/><path d="M553.006 227.92 559.006 222.795 559.006 210.366 542.253 210.366 542.253 216.366 553.006 216.366 553.006 227.92Z" fill="#000000" fill-rule="nonzero" fill-opacity="1"/><path d="M553.006 256.811 553.006 270.366 542.253 270.366 542.253 276.366 559.006 276.366 559.006 261.936 553.006 256.811Z" fill="#000000" fill-rule="nonzero" fill-opacity="1"/><path d="M566.253 221.866 566.253 234.366 588.006 234.366 588.006 250.366 566.253 250.366 566.253 262.866 542.253 242.366 566.253 221.866Z" fill="#000000" fill-rule="nonzero" fill-opacity="1"/></g></g></g></g></svg>