<?xml version="1.0" encoding="utf-8"?>
<!-- Generator: Adobe Illustrator 26.0.1, SVG Export Plug-In . SVG Version: 6.00 Build 0)  -->
<svg version="1.1" id="Layer_1" xmlns="http://www.w3.org/2000/svg" xmlns:xlink="http://www.w3.org/1999/xlink" x="0px" y="0px"
	 viewBox="0 0 595.18 482.35" style="enable-background:new 0 0 595.18 482.35;" xml:space="preserve">
<style type="text/css">
	.st0{fill:#E5DDBF;stroke:#916F5D;stroke-width:7.6777;stroke-linecap:round;stroke-linejoin:round;stroke-miterlimit:10;}
	.st1{fill:#FFFFFF;}
	.st2{fill:#E5DDBF;stroke:#916F5D;stroke-width:7.0491;stroke-linecap:round;stroke-linejoin:round;stroke-miterlimit:10;}
</style>
<g>
	<polygon class="st0" points="3.84,156.52 61.65,478.52 546.6,392.21 487.69,64.8 	"/>
	<polygon class="st0" points="27.41,95.56 85.22,417.55 570.17,331.25 511.27,3.84 	"/>
	<polygon class="st0" points="85.22,417.55 61.65,478.52 546.6,392.21 570.17,331.25 	"/>
	<polygon class="st0" points="27.41,95.56 3.84,156.52 61.65,478.52 85.22,417.55 	"/>
	<polygon class="st0" points="85.22,417.55 106.39,374.25 100.96,277.57 74.39,222.07 59.65,275.13 	"/>
	<polygon class="st0" points="570.17,331.25 591.34,287.94 585.91,191.26 559.34,135.77 544.6,188.82 	"/>
	<polygon class="st0" points="106.39,374.25 591.34,287.94 570.17,331.25 85.22,417.55 	"/>
	<polygon class="st0" points="106.39,374.25 100.96,277.57 585.91,191.26 591.34,287.94 	"/>
	<polygon class="st0" points="74.39,222.07 100.96,277.57 585.91,191.26 559.34,135.77 	"/>
</g>
</svg>
