<?xml version="1.0" encoding="utf-8"?>
<!-- Generator: Adobe Illustrator 26.0.1, SVG Export Plug-In . SVG Version: 6.00 Build 0)  -->
<svg version="1.1" id="Layer_1" xmlns="http://www.w3.org/2000/svg" xmlns:xlink="http://www.w3.org/1999/xlink" x="0px" y="0px"
	 viewBox="0 0 382.15 553.38" style="enable-background:new 0 0 382.15 553.38;" xml:space="preserve">
<style type="text/css">
	.st0{fill:#E5DDBF;stroke:#916F5D;stroke-width:7.6777;stroke-linecap:round;stroke-linejoin:round;stroke-miterlimit:10;}
	.st1{fill:#FFFFFF;}
	.st2{fill:#E5DDBF;stroke:#916F5D;stroke-width:7.0491;stroke-linecap:round;stroke-linejoin:round;stroke-miterlimit:10;}
</style>
<g>
	<polygon class="st0" points="38.9,135.9 295.97,86.84 370.89,498.3 132.5,549.54 62.15,209.26 18.52,217.23 3.84,142.55 	"/>
	<polygon class="st0" points="46.32,51.77 297.47,3.84 378.31,414.17 135.07,465.1 69.57,125.12 25.94,133.09 11.26,58.42 	"/>
	<polygon class="st0" points="25.94,133.09 18.52,217.23 62.15,209.26 69.57,125.12 	"/>
	<polygon class="st0" points="69.57,125.12 135.07,465.1 132.5,549.54 62.15,209.26 	"/>
	<polygon class="st0" points="135.07,465.1 132.5,549.54 370.89,498.3 378.31,414.17 	"/>
	<polygon class="st0" points="11.26,58.42 25.94,133.09 18.52,217.23 3.84,142.55 	"/>
</g>
</svg>
