<?xml version="1.0" encoding="utf-8"?>
<!-- Generator: Adobe Illustrator 26.0.1, SVG Export Plug-In . SVG Version: 6.00 Build 0)  -->
<svg version="1.1" id="Layer_1" xmlns="http://www.w3.org/2000/svg" xmlns:xlink="http://www.w3.org/1999/xlink" x="0px" y="0px"
	 viewBox="0 0 1581.09 2335.5" style="enable-background:new 0 0 1581.09 2335.5;" xml:space="preserve">
<style type="text/css">
	.st0{fill:#E5DDBF;stroke:#916F5D;stroke-width:7.6777;stroke-linecap:round;stroke-linejoin:round;stroke-miterlimit:10;}
	.st1{fill:#FFFFFF;}
	.st2{fill:#E5DDBF;stroke:#916F5D;stroke-width:7.0491;stroke-linecap:round;stroke-linejoin:round;stroke-miterlimit:10;}
</style>
<g>
	<g>
		<polygon class="st0" points="344.86,824.52 764.7,3.84 1397.64,337.05 1126.58,875.59 847.28,721.89 694.91,1007.62 		"/>
		<polygon class="st0" points="1397.64,337.05 1577.25,892.05 1306.19,1430.59 1126.58,875.59 		"/>
		<polygon class="st0" points="847.28,721.89 1026.89,1276.9 1306.19,1430.59 1126.58,875.59 		"/>
		<polygon class="st0" points="443.02,818.03 580.59,549.13 443.02,477.17 305.46,746.07 		"/>
		<polygon class="st0" points="889.22,1550.42 694.91,1007.62 464.04,886.86 443.02,818.03 305.46,746.07 499.01,1329.97 		"/>
		<polygon class="st0" points="1066.79,1298.76 1011.27,1127.2 496.18,2141.67 546.9,2331.66 		"/>
		<polygon class="st0" points="1011.27,1127.2 970.98,1104.12 828.91,1381.94 870.58,1404.29 		"/>
		<polygon class="st0" points="870.58,1404.29 796.54,1200.62 557.33,1667.59 631.37,1875.42 		"/>
		<polygon class="st0" points="243.05,937.37 796.54,1196.46 557.33,1667.59 3.84,1408.5 		"/>
		<polygon class="st0" points="228.79,1683.95 631.37,1875.42 496.18,2141.67 106.57,1924.66 		"/>
		<polygon class="st0" points="106.57,1924.66 496.18,2141.67 546.9,2331.66 157.29,2114.65 		"/>
		<polygon class="st0" points="694.91,1007.62 847.28,721.89 970.98,1104.12 848.52,1343.59 796.54,1200.62 757.29,1181.88 		"/>
		<polygon class="st0" points="1061.43,1579.12 945.2,1513.64 1061.56,1282.06 1174.27,1345.56 		"/>
		<polygon class="st0" points="1038.23,1507.95 1031.06,1485.79 1143.89,1252.22 1151.07,1274.39 		"/>
		<polygon class="st0" points="1065.79,1593.8 1061.43,1579.12 1174.27,1345.56 1178.63,1360.24 		"/>
		<polygon class="st0" points="921.99,1442.47 914.82,1420.3 1031.06,1485.79 1038.23,1507.95 		"/>
		<line class="st0" x1="949.19" y1="1526.5" x2="914.82" y2="1420.3"/>
		<polygon class="st0" points="1031.06,1485.79 914.82,1420.3 1031.18,1188.72 1143.89,1252.22 		"/>
		<polygon class="st0" points="1079.16,1601.32 1065.79,1593.8 1178.63,1360.24 1189.2,1366.18 		"/>
		<polygon class="st0" points="1083.55,1615.99 1079.19,1601.32 1189.2,1366.21 1193.56,1380.88 		"/>
		<path class="st0" d="M945.2,1513.64l-45.14,88.41c-11.72,22.96-3.65,51.08,18.47,64.32l92.75,48.8l26.96-52.26l-40.7-22.79
			c-12.86-7.2-17.92-23.16-11.55-36.45l25.29-52.8L945.2,1513.64z"/>
		<path class="st0" d="M1011.27,1550.86l4.22,23.92l-13.69,30.81c-5.08,11.44-2,24.85,7.56,32.93l28.87,24.38l-40.43-22.53
			c-13.27-7.4-18.46-23.87-11.81-37.54L1011.27,1550.86z"/>
		<polygon class="st0" points="1083.55,1615.99 1079.19,1601.32 1065.79,1593.8 1059.73,1578.17 1011.27,1550.86 1015.49,1574.78 		
			"/>
		<polygon class="st0" points="228.79,1683.95 631.37,1875.42 557.33,1667.59 3.84,1408.5 106.57,1683.95 205.7,1729.43 		"/>
	</g>
	<polygon class="st0" points="601.61,617.96 580.59,549.13 443.02,818.03 464.04,886.86 	"/>
</g>
</svg>
