<?xml version="1.0" encoding="utf-8"?>
<!-- Generator: Adobe Illustrator 26.0.1, SVG Export Plug-In . SVG Version: 6.00 Build 0)  -->
<svg version="1.1" id="Layer_1" xmlns="http://www.w3.org/2000/svg" xmlns:xlink="http://www.w3.org/1999/xlink" x="0px" y="0px"
	 viewBox="0 0 1532.01 1540.05" style="enable-background:new 0 0 1532.01 1540.05;" xml:space="preserve">
<style type="text/css">
	.st0{opacity:0.7;}
	.st1{fill:#E5DDBF;}
	.st2{opacity:0.6;fill:#BEAC83;}
	.st3{fill:url(#SVGID_1_);}
	.st4{fill:#FFFFFF;}
</style>
<g class="st0">
	<rect x="-25.03" class="st1" width="1612.8" height="1612.8"/>
	<polygon class="st2" points="1587.77,351.2 1326.63,467.22 1197.16,477.52 840.19,483.74 655.9,490.76 442.58,576.68 
		361.26,340.83 558.1,300.4 574.59,267.73 626.31,236.31 610.1,165.12 616.1,136.42 564.13,84.15 541.81,74.65 606.87,-46.2 
		626.31,-46.2 675.48,-16.89 736.21,-15.07 774.11,-50.58 1355.88,-80.9 1587.77,-80.9 	"/>
	<polygon class="st2" points="1148.91,1573.11 1125.86,1558.55 1055.66,1514.23 1047.73,1456.52 1043.41,1278.12 1025.74,1168.82 
		1017.43,1143.98 1001.86,1144.71 1048.66,1053.24 1078.84,1009.44 1104.34,969.94 1133.64,841.65 1170.83,811.25 1237.31,814.03 
		1299.31,777.4 1344.33,786.34 1418.86,752.38 1448.26,732.86 1505.55,729.32 1515.34,732.86 1501.16,767.25 1469.99,794.77 
		1435.03,979.55 1412.88,1071.33 1405.44,1257.86 1436.61,1383.49 1467.15,1432.14 1494.55,1503.76 1515.34,1573.11 	"/>
</g>
<g>
	<radialGradient id="SVGID_1_" cx="625.7222" cy="656.0623" r="924.5814" gradientUnits="userSpaceOnUse">
		<stop  offset="0" style="stop-color:#66BD6C"/>
		<stop  offset="1" style="stop-color:#018837"/>
	</radialGradient>
	<path class="st3" d="M988.76,1170.3c-13.26,25.91-43.72,37.93-71.1,28.04c-63.03-22.76-168.69-59.84-191.95-61.33
		c-41.99-2.69-122.88,12.12-122.88,12.12l-243.54-332.2c-3.32-4.53-4-10.46-1.8-15.62c14.19-33.2,66.46-155.04,75.48-169.34
		c10.46-16.57,48.82-21.6,78.82-36.98c30.01-15.38,132.29-52.94,217.99-58.75s221.82-10.17,246.37-1.28
		c35.3,12.78,131.73,87.14,108.49,170.79c-16.55,59.58-50.26,124.65-68.29,157.17c-6.57,11.86-2.7,26.79,8.8,33.97l9.49,5.93
		c10.86,6.79,15,20.57,9.68,32.22l-20.94,45.86c-7.47,16.36-0.52,35.69,15.65,43.55l0,0c10.7,5.21,15.04,18.19,9.62,28.79
		L988.76,1170.3z"/>
	<path class="st4" d="M1497.44,755.05c14.03-1.27,69.33-41.65,69.33-41.65l-4.71-18.16c0,0-53.89,38.79-68.75,44.57
		c-14.86,5.78-71.81,9.9-96.61,36.25c-24.81,26.35-80.01,35.55-112.08,41.48c-32.07,5.93-38.09,36.99-40.57,64.44
		s-10.72,69.93-10.72,69.93s-75.11,2.49-89.14,5.25S1112,969.46,1112,969.46s-61.08,98.02-72.63,149.19
		c-11.55,51.17-4.13,75.11,0.83,122.15c4.95,47.04,18.98,177.45,18.98,177.45l-3.07,79.07l-8.65-1.64h-8.34l-26.13,3.89l-11.4-5
		l-26.13-15.84l-32.13-20.55c-1.74-1.11-3.67-1.89-5.7-2.29l-24.99-4.95l-17.14-7.83c-11.31-5.16-24.47-4.19-34.89,2.59
		l-40.53,26.36l-54.48-85.89l-53.93-84.78l-94.79-132.04l34.15-13.34l32.57-5.04h18.35l44.73,4.37l44.48,6.39l27.54,10.68
		l64.77,33.37c4.31,2.22,9.75,0.89,12.23-3.28c2.71-4.56,0.99-10.34-3.6-12.73l-24.2-12.63l-35.86-18.62l-31.69-10.81l0,0
		c-5.47-1.58-8.5-7.42-6.64-12.8l18.57-53.7c1.83-5.3,7.46-8.27,12.87-6.79l32.77,8.95l5.3-16.4l-15.75-4.22
		c-3.28-0.88-5.07-4.4-3.85-7.57l3.06-7.96c2.52-6.55-0.03-13.96-6.05-17.58l-7.1-4.26c-2.52-1.51-3.43-4.72-2.09-7.34l25.74-49.98
		c1.39-2.71,4.7-3.8,7.43-2.45l29.16,14.37c4.98,2.45,10.99,1.68,15.08-2.08c4.68-4.3,11.15-7.59,15.2-5.61l44.37,21.74
		c8.07,3.95,17.81,0.67,21.84-7.36l22.97-45.79c3.95-7.87,0.97-17.45-6.75-21.69l-38.5-21.15l19.74-40.86l26.13-24.46l48.43-94.38
		c3.44-6.71,2.16-14.87-3.17-20.2l-28.58-28.58l-13.06-6.66l0.84-1.43c1.32-2.26,1.51-4.89,0.72-7.22l5.2-26.37l-4.86-13.53
		l-8.3,34.03c-2.73-0.08-5.46,1.1-7.23,3.45l-3.59,4.75l-73.2-29.39c0,0-4.38-1.98-9.58-1.28c-1.96,0.26-3.69-1.28-3.62-3.26
		l0.35-10.14c0-3.34,2.7-6.04,6.04-6.04h32.17c3.81,0,6.91-3.09,6.91-6.91v-3.96c0-3.81-3.09-6.91-6.91-6.91v-29.99
		c0-7.26-5.88-13.14-13.14-13.14h-30.78v-38.91h67.52l171.59-1.96l72.08-6.66l53.28-5.48l53.67-9.4l67.38-26.25l168.06-68.95v-24.57
		l-127.92,51.89l-106,44.48l-74.13,12.6l-109.71,7.41l-39.81,1.88v-70.37h-18.14v70.37l-206.66,2.43l-1.2-172.4l273.2-4
		c8.8,0,21.6-24.4,25.6-30c4-5.6,24.8-13.2,34.8-2.8c10,10.4,8,30,16.8,35.2c6.56,3.87,41.1,4.2,58.28,4.11
		c5.03-0.03,9.39-3.83,9.7-8.85c0.34-5.49-4.01-10.06-9.43-10.06h-48.35c0,0-8.6-32-24.6-38.8s-42.4-5.2-51.6,9.6
		c-9.2,14.8-11.6,24-21.2,25.6c-9.6,1.6-263.6,3.2-263.6,3.2v-38h44.4v-17.6h-46.4v-29.2h-51.6v-62h-18.8v80.8h53.2l3.2,93.6v161.2
		l-80,0.8l-37.2,2.8l-46.8,3.23l-90.54,23.97l-23.96,6.83l-17.1-41.63l178.8-42.56l77.6-31.44c0,0,8.38-2.8,15.19-21.2
		c6.81-18.4,8.69-26.8,6.95-36c-0.95-5.01-2.56-12.88-3.84-19.02c-0.99-4.77-5.37-8.24-10.21-7.72c-5.36,0.57-9.08,5.48-8.28,10.74
		l3.39,22.01l-3.2,19.2l-12.4,20.8l-65.6,24l-85.6,22.4l-92.8,21.2l-65.2,16.4l4.8,15.6l44-10.8l15.6,43.42l-113.51,46.29
		l-72.89-221.71l-15.2-54l-2-20.4l106-8.88l43.36-7.12l43.04,0.4l0.4-16.4l-50.4-0.8l-78,10.4l-68.4,7.6l-8-36.8l-4.8-80.34
		l0.4-42.46l43.2-35.61l42-12.68h36.4l67.04,18.28l31.76,4.8l13.6,16.8l14.89,17.83c3.03,3.62,8.39,4.53,12.23,1.78
		c4.22-3.01,4.98-8.89,1.8-12.86l-29.72-37.13l-36.4-9.5l69.2-109.72h18c0,0,14.8,13.13,30.4,15.96c15.6,2.84,60,6.44,60,6.44
		l-4.4,120.4l16.52,1.2l4.68-124c0,0,54.8-30.4,65.6-48.8h-29.2c-9.6,15.6-32.99,33.61-54,33.2c-21.01-0.41-66.8,0.14-83.6-24.13
		h-202.8l101.44,14.53l56.96,5.6l-60.8,94.4l-4.64,12.43c0,0-42.44-12.14-66.3-15.68s-63.06,3.5-79.46,18.18s-30.8,26.68-30.8,26.68
		l-4-2.4l21.69-158l-20.09-2.85L330.9,61.65L258.91-46.68l29.5-10.87l-13.1-20.4c0,0-120.8,73.2-136.4,91.6
		c-15.6,18.4-55.6,66.8-55.6,66.8s-47.2,31.98-76.4,45.19l5.2,21.61c34-16,85.91-45.2,94.56-58l115.04,172.4l-89.69,64L15.86,152.05
		l-2.95,30l105.2,152l-66.8,42.8l-72.8-99.2l-10,69.2l115.2,173.03l-15.61,7.02L4.11,498.85v21.03l63.6,21.41l26.8-6.83l56.48,82.6
		l-72.45,41.8l-31.62,3.17l-52,2.43l1.6,17.6l67.2-3.2l4.8,52.4l-90.8,8.75v15.09l108.4-5.74l-2.8-73.3l77.2-45.6l70.8,98
		l-162,78.39l-44.4,6.71l-44,8.9l6,17.61l24-2l1.6,24.4l12.8,107.01l-101.6,14.59l3.6,17.6l100-13.16l10.55,84.36l-43.45-26.55
		l0.9,20.15l22.4,15.26l-52.78,150.85l11.98,1.77l52.31-144.02l53.29,23.33l-46.38,118.92H-3.09l1.6,17.48l275.6-2l-10,21.2
		l-72.4,1.2l-11.47,4.08c-3.3,1.17-5.44,4.55-4.77,7.99c0.81,4.19,5.05,6.63,9.01,5.37l10.83-3.45l58.8,0.8l-24.29,67.2
		l-104.11,55.2l-39.33-121.03c-1.23-3.8-5.39-5.8-9.13-4.4l-2.92,1.1c-3.49,1.31-5.34,5.11-4.23,8.66l38.81,123.67l-93.05,56.4
		l-32.95-105.08c-1.48-4.71-6.78-7.03-11.24-4.9l-1.96,0.93c-3.66,1.74-5.48,5.93-4.25,9.79l33.85,106.45l-71.2,35.6l10.32,19.73
		l83.39-41.94l31.9,79.89l17.54-8.52l-32.46-79.36l159.73-90.88l45.94,103.6c1.76,3.96,6.29,6.08,10.35,4.56
		c4.43-1.66,6.46-6.62,4.63-10.85l-45.88-105.8l21.47-13.98l10.99,16.48l37.45,31.96l44.94,33.95l-17.98,73.4L287.96,1564
		l14.48,6.53l22.59-36.45l21.35-71.4l83.39,51.93l12.48,17.98L415.79,1564l21.47,8.52l15.98-24.47l6.99,29.26l19.65-18.41
		l-33.63-55.63l-103.14-62.58l-53.16-35.95l-32.38-30.16l-9.57-17.27l38.45-86.38l22.97-33.95l13.48-16.48l83.39,39.95l39.45,13.48
		l60.42-1l54.93,1l41.44-26.46l84.89,122.34l34.45,51.43l-86.08,43.62c-8.94,4.53-19.83,2.03-25.9-5.94l-60.17-79.07
		c-2.59-3.4-7.36-4.21-10.93-1.87l-0.17,0.11c-4.01,2.64-4.87,8.17-1.84,11.9l81.23,100.16l112.85-52.43l28.96,49.93L608.53,1564
		l-40.95-31.42l-20.02-18.27l-43.4-71.11l-26.76-23.88c-3.2-2.86-8.07-2.73-11.12,0.29l-0.51,0.51c-3.29,3.26-3.2,8.61,0.21,11.75
		l24.79,22.82l48.84,78.89c0,0,70.91,56.42,70.41,54.43s59.42-36.7,59.42-36.7l97.87-45.92l42.94,67.24l59.68-14.68l-38.46-69.77
		l36.41-25.57l5.84-4.45h10.84l5.56,1.11l18.35,9.94l16.4,1.18l13.62,5l37.53,25.57l32.25,14.73h13.9l20.01-4.64l14.18,2.69
		l11.12,7.51l13.06,11.95l22.24,18.1h25.57l-32.22-27.31l-10.86-12.94l-11.46-7.64c1.7-22.07-8.26-161.87-13.06-203.31
		c-4.8-41.44-13.96-131.73-12.31-158.29s15.8-53,15.8-53s23.12,7.59,30.97,19.8c7.85,12.21,67.61,77.52,67.61,77.52
		s11.34,3.18,36.43,0.76c25.09-2.42,23.33,1.11,25.02,7.9c1.69,6.78-2.12,70.42-1.69,92.23c0.44,21.81,10.03,95.09,10.03,95.09
		l-13.96,3.05l-41.44,2.54l2.18,15.34c0,0,43.62-0.87,48.42,1.31c4.8,2.18,6.54,13.52,0.87,41.44s-26.17,111.23-26.17,111.23
		l26.61,4.36c0,0,20.94-87.24,27.04-109.49c6.11-22.25-0.44-66.3-0.44-66.3l3.93-0.44l-1.31-17.88h-10.03
		c0.87-12.21-6.54-48.85-8.99-64.12s1.14-42.31,2.3-72.41s-3.78-40.57-3.61-53.43c0.17-12.86,6.37-53.44,3.05-77
		c-3.32-23.56-8.46-28.79-7.15-51.47c1.31-22.68,17.88-82.44,22.25-125.19c4.36-42.75,7.42-53.65,17.45-73.46s35.76-24.7,45.37-21.2
		l40.57,44.49l-80.7,76.77l38.82,41.22l-23.94,28.83c-3.09,3.73-4.49,8.57-3.86,13.38l0.06,0.46c3.64,27.63,27.19,48.28,55.06,48.28
		h37.67v90.39h-63.17v13.3h63.6l1.94,81.2c0.14,5.68-4.38,10.37-10.06,10.46l-69.96,1.04v12.56l69.78-1.14
		c5.75-0.09,10.44,4.57,10.38,10.31l-0.72,73.87c-0.05,4.75-3.91,8.57-8.66,8.57l-88.66-0.02l0.67,17.1l77.74,0.71
		c4.21,0.04,6.12,5.29,2.9,8.02l-28.64,24.28l8.5,10.73l43.5-37.97l10.84,7.7l32.9,42.47l-48.64,48.4
		c-3.66,3.65-3.65,9.58,0.03,13.21l49.44,48.72c0,0,23.08-19.44,38.79-33.38c15.71-13.94,6.91-27.03-3.34-53.87
		c-10.25-26.84-74.98-85.12-74.98-85.12s-0.92-265.43,0.08-305.16c1-39.74,29.54-77.46,29.21-129.54
		c-0.33-52.08-51.91-93.02-92.11-133.62c24.37,0.25,75.03-39.15,97.5-53.48C1454,757.83,1483.41,756.32,1497.44,755.05z
		 M846.46,953.74l-32.56,65.81c-3.46,6.99-0.75,15.46,6.12,19.15l7.9,4.23c2.57,1.38,3.65,4.51,2.46,7.18h0
		c-1.83,4.13-6.4,6.32-10.77,5.15l-4.09-1.09l-73.79-39.4c-2.6-1.39-3.2-4.86-1.21-7.04l46.11-50.56l24.33-59.87
		c0.72-1.76,2.76-2.57,4.49-1.77l10.15,4.7c1.56,0.72,3.42,0.14,4.28-1.35l7.8-13.41c0.84-1.45,2.63-2.05,4.17-1.4l54.34,22.83l0,0
		c2.11,1.15,3.01,3.71,2.07,5.92l-14.43,34.36c-1.63,3.87-6.15,5.6-9.94,3.82l-8.34-3.92C858.45,943.71,849.95,946.68,846.46,953.74
		z M438.7,793.38c7.28,0.94,10.46,7.24,11.95,13.46l2.45,10.68c0.24,1.04-0.05,2.12-0.76,2.91l-46.63,51.14
		c-1.82,1.99-5,1.83-6.61-0.33l-25.05-33.7c-1.41-1.89-1.03-4.56,0.85-5.98C393.78,817.36,432.52,792.57,438.7,793.38z
		 M366.66,809.96c-5.02,3.19-11.65,1.97-15.2-2.81L337.6,788.5l-3.31-4.49l-3.39-22.82v-28.82l6.7-40.52l36.26-25.77l10.31-6.39
		l51.14,33.58c2.48,1.63,3.78,4.55,3.32,7.48c-2.55,16.27-10.76,68.48-11.52,72.12c-0.91,4.32-10.46,9.09-38.27,24.19
		C378.97,802.42,371.81,806.69,366.66,809.96z M452.3,766.51c2.09-9.09,24.52-47.97,24.52-47.97l16.46,10.29l-29.33,53.13
		C463.94,781.96,450.2,775.61,452.3,766.51z M456.41,831.96l1.14,4.97l41.27,58.14l11.72,11.15c2.47,2.35,2.24,6.35-0.49,8.4
		l-47.19,35.48c-1.81,1.36-4.39,0.99-5.74-0.83l-50.23-67.57c-1.25-1.68-1.1-4.01,0.34-5.52l43.68-45.74
		C452.69,828.58,455.83,829.45,456.41,831.96z M526.77,921.65l5.55,5.28l29.99,38.82l39.86,105.02c1.12,2.96,0.11,6.31-2.48,8.15
		l-25.44,18.07c-2.66,1.89-6.35,1.31-8.3-1.31l-96.64-130c-1.32-1.78-0.99-4.29,0.76-5.66l49.5-38.71
		C521.73,919.62,524.79,919.77,526.77,921.65z M579.46,957.16l-12.85-14.91c-1.39-1.62,0.51-3.96,2.38-2.92l134.65,75.06
		c2.54,1.42,2.5,5.09-0.07,6.45l-77.61,41.09c-2.96,1.57-6.62,0.19-7.81-2.94L579.46,957.16z M547.78,920.41l-14.1-16.35
		l-21.73-19.37c-2.19-1.95-2.72-5.16-1.29-7.71l56.64-100.83c1.2-2.13,3.89-2.9,6.03-1.71l44.95,24.86c2.03,1.12,2.86,3.61,1.9,5.73
		l-13.41,32.33c-1.88,4.83,0.16,10.31,4.74,12.74L743.31,920c4.71,2.5,6.71,8.19,4.6,13.08l-29.51,69.33
		c-2.24,5.27-8.55,7.45-13.57,4.68L547.78,920.41z M771.92,946.63l-17.29,20.86l117.27-264.6L771.92,946.63z M819.12,877.24
		l9.92,6.7l-3.38,7.09l-10.13-4.96L819.12,877.24z M861.35,688.22l-7.03,10.71l-92.02,203.86c-2.45,5.42-8.98,7.62-14.2,4.78
		l-87.2-47.37c-3.93-2.13-5.54-6.94-3.69-11.01l9.31-20.49c1.74-3.82,0.43-8.34-3.08-10.65l-15.94-10.46
		c-3.53-2.32-4.83-6.87-3.06-10.71l28.49-61.43c2.03-4.37,7.28-6.19,11.58-4.02l11.75,5.95l26.77,12.76
		c1.77,0.84,3.88,0.1,4.74-1.67l41.66-86.31c2.5-5.19,7.82-8.42,13.58-8.27c8.42,0.23,16.79,1.85,24.75,4.84l64.13,24.13
		L861.35,688.22z M754.63,666.59c-0.35,7.18-22.05,52.51-28.04,64.89c-0.84,1.74-2.92,2.49-4.67,1.68l-52.95-24.1v0l-37.33-20.85
		l0,0c-2.06-2.38-0.79-6.1,2.3-6.71l115.24-22.82C749.18,658.68,755.03,658.27,754.63,666.59z M644.36,716.27l11.56,6.83
		c1.61,0.95,2.23,2.97,1.43,4.66l-25.34,53.59c-1.14,2.4-4.11,3.28-6.37,1.88l-11.37-7.05c-1.96-1.22-2.67-3.73-1.63-5.79
		l26.64-52.65C640.23,715.89,642.56,715.21,644.36,716.27z M589.55,762.64l-7.52-3.39c-2.42-1.09-3.35-4.04-2-6.33L612.6,698
		c0.65-1.1,2.26-1.02,2.8,0.14l1.39,2.99l5.21,3.06c1.68,0.99,2.28,3.13,1.35,4.85l-28.06,51.67
		C594.18,762.75,591.67,763.59,589.55,762.64z M994.36,932.93l-18.89,42.53c-0.87,1.95-3.2,2.76-5.09,1.76l-36.89-19.56
		c-5.86-3.11-12.32-4.03-18.43-3.03c-4.82,0.79-9.47-2.17-10.92-6.83l-2.94-9.46c-0.82-2.64-0.64-5.5,0.5-8.02l22.02-48.46
		c0.94-2.08,3.46-2.9,5.45-1.77l17.9,10.14c2.03,1.15,2.8,3.68,1.76,5.76l-1.79,3.6l4.34,7.1l41.31,21.48
		C994.42,929.07,995.15,931.16,994.36,932.93z M1011.74,699.57l6.51,4.16l25.98,24.66c2.47,2.35,3.06,6.07,1.42,9.06l-46.34,84.61
		l-36.69,46.16l-5.14,10.34c-1.1,2.21-3.8,3.08-5.98,1.92l-22.8-12.12c-5.08-2.7-11.39-0.58-13.81,4.64l-10.01,21.62
		c-1.07,2.31-3.79,3.34-6.12,2.32l-63.27-27.6c-0.79-0.35-1.2-1.23-0.94-2.06l1.51-4.83c0.24-0.76-0.08-1.58-0.77-1.97l-6.31-3.63
		c-0.73-0.42-1.04-1.32-0.72-2.11l61.39-151.04l0-12.97l3.75-2.54l27.22,11.36l34.91,4.15h23.08l19.26-6.01
		C1002.54,696.26,1007.61,696.94,1011.74,699.57z M913.15,585.09c7.39-0.74,15.3-0.29,19.92,0.11c2.26,0.2,3.99,2.1,3.99,4.37v15.64
		c0,2.42-1.96,4.39-4.39,4.39h-19.08c-2.42,0-4.39-1.96-4.39-4.39v-15.74C909.21,587.21,910.91,585.32,913.15,585.09z M923.13,651.1
		c7.54,1.65,43.06,18.25,62.44,27.46c2.07,0.98,1.92,3.97-0.23,4.75l-8.76,3.18l-52.08-6.12l-18.04-5.15
		c-3.27-0.93-4.88-4.62-3.33-7.66l3.7-7.26C906.84,660.29,912.65,648.8,923.13,651.1z M691.58,538.78l57.59-9.4l50.87-2.74h91.53
		l0.5,81.47l3.06,18.62v17.73l-9.18,16.42c-2.01,3.6-6.34,5.22-10.22,3.81c-14.52-5.25-48.16-17.79-59.17-21.47L787.95,632
		c-4.24-1.66-6.3-6.47-4.57-10.69l7.18-17.54l-9.08-4.13l-6.82,18.13c-1.69,4.48-6.53,6.92-11.13,5.6l-48.19-13.79v11.81
		l47.08,15.13c1.28,0.41,1.06,2.28-0.28,2.4c-6.49,0.56-11.01,1.42-11.01,1.42l-123.87,25.04c-3.04,0.61-6.02-1.23-6.83-4.22
		c-4.52-16.76-18.58-68.73-25.01-91.04c-0.86-3,0.91-6.12,3.93-6.92L691.58,538.78z M579.42,575.59l24.73,94.95
		c0.95,3.66,0.42,7.56-1.48,10.83l-100.6,173.25c-2.31,3.97-7.98,4.17-10.56,0.37l-16.67-24.59c0,0-4.09-13.92-6.26-21.96
		l2.17-16.24l33.77-60.53c2.05-3.67,0.81-8.31-2.79-10.48l-110.12-66.11l60.58-37.57l119.85-45.73
		C575.14,570.6,578.58,572.38,579.42,575.59z M384.32,445.76l51.15,156.01L330.9,669.29c0,0-71.23-0.6-82.28-7.27l-4.67-6.14
		l95.71-61.36c8.87-5.69,12.89-16.56,9.86-26.65l-26.24-87.33L384.32,445.76z M313.49,706.63l-6.32,40.87l-17.7-25.7L313.49,706.63z
		 M276.41,703.68l-8.85-15.46l28.65,3.64L276.41,703.68z M335.13,250.36l11.85,71.12l30.21,106.3l-16.44,7.65L246.04,267.25
		l83.74-57.04L335.13,250.36z M243.56-37.19l84.31,127.77v77.95L205.13-11.95L243.56-37.19z M190.21-0.48l128.86,182.78l8.79,9.5
		l-43.59,23L159.24,24.75L190.21-0.48z M118.33,75.61l29.06-35.18l126.57,184.43l-39.24,29.89L118.33,75.61z M177.21,313.45
		l52.98,70.7c2.62,3.49,7.58,4.18,11.05,1.53v0c3.33-2.55,4.07-7.26,1.68-10.7l-50.02-72.24l38.98-26.77l115.1,169.78l-91.77,59.26
		l-113.18-164.8L177.21,313.45z M61.08,394.09l67.04-43.37l111.28,164.62l-63.93,44.67L61.08,394.09z M184.07,574.03l125.63-81.66
		l27.26,87.42l-102.78,60.72L184.07,574.03z M243.95,749.35l18.9,23.09l-46.9-5.68L243.95,749.35z M27.65,836.34l50.88-7.48
		l105.54-46.9l95.77,16.31L367,921.48l-69.49,15.57l-78.17,7.81L45.1,969.46L27.65,836.34z M66.45,1090.32l-9.26-8.52L45.1,986.35
		l182.17-22.98l9.35,78.32c0.58,4.83,4.67,8.47,9.54,8.47c5.63,0,10.05-4.82,9.57-10.43l-7.11-82.57l130.7-20.1l50.84,71.9
		l-231.66,128.41l-12.18,11.28l-98.05-44.98l88.79-12.09c5.15-0.7,8.81-5.38,8.25-10.55l-0.16-1.45c-0.6-5.53-5.76-9.4-11.24-8.42
		L66.45,1090.32z M289.44,1230.46H57.19l37.29-105.18l68.53,33.67l139.38,50.94L289.44,1230.46z M319.3,1196.07l-117.24-39.86
		l241.22-135.41l14.53,24.87L319.3,1196.07z M569.46,1249.35l-19.17,5.87l-62.28,2.16l-69.06-8.03l-81.98-38.22l132.92-146.24
		l124.44,169.44L569.46,1249.35z M603.53,1148.65l-20.23-26.06c-2.12-2.73-1.61-6.67,1.14-8.77c0,0,33.83-26.49,60.51-45.39
		c25.57-6.39,74.55-34.92,74.55-34.92l7.45-8.44l65.59,36.95c4.28,2.41,6.22,7.53,4.62,12.18l-20.64,59.89
		c-1.53,4.43-5.94,7.18-10.59,6.6l-26.48-3.32l-55.04-3.52l-33.4,5.75l-36.89,9.47L603.53,1148.65z M1227.4,978.46l-8.82,70.51
		l-1.92,9.42l-1.86,6.5h-57.32l-1.89,8.03l60.52,0.5l5.62,26.96l1.89,41.17l-3.15,26.78l-3.78,4.5l-47.53,2.42l-42.68-53.48
		l-26.31-26.82l-20.78-13.23l-7.56-8.8l46.61-87.17c0,0,21.41-16.3,34.01-16.3s74.95,2.67,74.95,2.67V978.46z M1471.21,1507.33
		c6.81,13.26-31.05,42.18-31.05,42.18l-34.28-34.31c-4.24-4.24-4.4-11.05-0.38-15.49c11.18-12.33,32.17-34.58,37.98-34.57
		C1443.48,1465.15,1464.39,1494.07,1471.21,1507.33z M1410.68,983.46c-5.67,28.34-23.3,86.29-23.3,86.29s-36.07,3.81-54.25-2.82
		c-18.18-6.63-33.62-31.54-28.89-36.23l82.51-81.88h25.19C1411.94,948.82,1416.35,955.12,1410.68,983.46z M1370.37,883.32
		c0,0,33.38,32.12,35.27,40.31s-2,12.45-5.8,11.43s-17.51-1.35-17.51-1.35l-45.91,45.71c-3.46,3.45-9.11,3.29-12.38-0.34
		l-24.37-27.1L1370.37,883.32z"/>
</g>
</svg>
