<svg width="97" height="96" xmlns="http://www.w3.org/2000/svg" xmlns:xlink="http://www.w3.org/1999/xlink" overflow="hidden"><defs><clipPath id="clip0"><rect x="309" y="196" width="97" height="96"/></clipPath><clipPath id="clip1"><rect x="310" y="196" width="96" height="96"/></clipPath><clipPath id="clip2"><rect x="310" y="196" width="96" height="96"/></clipPath><clipPath id="clip3"><rect x="310" y="196" width="96" height="96"/></clipPath></defs><g clip-path="url(#clip0)" transform="translate(-309 -196)"><g clip-path="url(#clip1)"><g clip-path="url(#clip2)"><g clip-path="url(#clip3)"><path d="M358 240C353 240 349 236 349 231 349 226 353 222 358 222 363 222 367 226 367 231 367 236 363 240 358 240ZM358 210C351.1 210 344.6 213.4 340.7 219.2 336.8 224.9 336 232.2 338.5 238.7L348 259.7 356.2 276.9C356.5 277.6 357.2 278 358 278 358.8 278 359.5 277.6 359.8 276.9L368 259.7 377.5 238.7C380 232.2 379.2 224.9 375.3 219.2 371.4 213.4 364.9 210 358 210Z" fill="#000000" fill-rule="nonzero" fill-opacity="1"/></g></g></g></g></svg>