<svg width="97" height="97" xmlns="http://www.w3.org/2000/svg" xmlns:xlink="http://www.w3.org/1999/xlink" overflow="hidden"><defs><clipPath id="clip0"><rect x="405" y="200" width="97" height="97"/></clipPath><clipPath id="clip1"><rect x="406" y="201" width="96" height="96"/></clipPath><clipPath id="clip2"><rect x="406" y="201" width="96" height="96"/></clipPath><clipPath id="clip3"><rect x="406" y="201" width="96" height="96"/></clipPath></defs><g clip-path="url(#clip0)" transform="translate(-405 -200)"><g clip-path="url(#clip1)"><g clip-path="url(#clip2)"><g clip-path="url(#clip3)"><path d="M432.2 285 434 281 474 281 475.8 285 432.2 285ZM437.7 273 470.4 273 472.2 277 435.9 277 437.7 273ZM436 256C436 254.3 437.3 253 439 253 440.7 253 442 254.3 442 256 442 257.7 440.7 259 439 259 437.3 259 436 257.7 436 256ZM436 215C436 212.8 437.8 211 440 211L448 211C448 209.9 448.9 209 450 209L458 209C459.1 209 460 209.9 460 211L468 211C470.2 211 472 212.8 472 215L472 235C472 236.1 471.1 237 470 237L438 237C436.9 237 436 236.1 436 235L436 215ZM468.5 269 439.5 269 441.3 265 466.7 265 468.5 269ZM469 259C467.3 259 466 257.7 466 256 466 254.3 467.3 253 469 253 470.7 253 472 254.3 472 256 472 257.7 470.7 259 469 259ZM471.1 265 472 265C475.3 265 478 262.3 478 259L478 213C478 208.6 474.4 205 470 205L438 205C433.6 205 430 208.6 430 213L430 259C430 262.3 432.7 265 436 265L436.9 265 424.2 293 428.6 293 430.4 289 477.5 289 479.3 293 483.7 293 471.1 265Z" fill="#000000" fill-rule="nonzero" fill-opacity="1"/></g></g></g></g></svg>